<svg viewBox="0 0 33 33" fill="none" xmlns="http://www.w3.org/2000/svg"><path d="M0.832 27.4C0.618667 27.4 0.426667 27.3253 0.256 27.176C0.0853333 27.0053 0 26.8027 0 26.568V5.832C0 5.59733 0.0853333 5.40533 0.256 5.256C0.426667 5.08533 0.618667 5 0.832 5H16.512C16.7467 5 16.9493 5.08533 17.12 5.256C17.2907 5.40533 17.376 5.59733 17.376 5.832V9.608C17.376 9.82133 17.2907 10.0133 17.12 10.184C16.9493 10.3547 16.7467 10.44 16.512 10.44H6.624V13.608H15.808C16.0427 13.608 16.2453 13.6933 16.416 13.864C16.5867 14.0133 16.672 14.2053 16.672 14.44V17.896C16.672 18.1307 16.5867 18.3333 16.416 18.504C16.2453 18.6533 16.0427 18.728 15.808 18.728H6.624V21.96H16.768C17.0027 21.96 17.2053 22.0453 17.376 22.216C17.5467 22.3867 17.632 22.5893 17.632 22.824V26.568C17.632 26.8027 17.5467 27.0053 17.376 27.176C17.2053 27.3253 17.0027 27.4 16.768 27.4H0.832Z" fill="#111827"/><path d="M16.9382 27.4C16.7036 27.4 16.5009 27.3253 16.3302 27.176C16.1809 27.0053 16.1063 26.8027 16.1063 26.568V23.464C16.1063 23.2293 16.1489 23.0267 16.2342 22.856C16.3409 22.664 16.4689 22.504 16.6182 22.376L23.5623 15.592H17.1943C16.9596 15.592 16.7569 15.5067 16.5863 15.336C16.4369 15.1653 16.3622 14.9733 16.3622 14.76V11.592C16.3622 11.3573 16.4369 11.1653 16.5863 11.016C16.7569 10.8453 16.9596 10.76 17.1943 10.76H30.6983C30.9329 10.76 31.1249 10.8453 31.2743 11.016C31.4449 11.1653 31.5303 11.3573 31.5303 11.592V14.984C31.5303 15.1547 31.4876 15.3253 31.4023 15.496C31.3383 15.6453 31.2316 15.784 31.0823 15.912L24.3943 22.568H31.3703C31.6049 22.568 31.7969 22.6533 31.9463 22.824C32.1169 22.9947 32.2023 23.1867 32.2023 23.4V26.568C32.2023 26.8027 32.1169 27.0053 31.9463 27.176C31.7969 27.3253 31.6049 27.4 31.3703 27.4H16.9382Z" fill="#111827"/></svg>