<svg viewBox="0 0 190 190" fill="none" xmlns="http://www.w3.org/2000/svg"><circle cx="95" cy="95" r="95" fill="#00B2FF"/><path d="M59.725 155.435V36.1226H105.09C114.764 36.178 121.241 37.8132 124.521 41.0282C127.801 44.3539 129.441 49.4812 129.441 56.4099V78.6095C129.441 85.5382 126.411 90.6655 120.351 93.9913C118.795 94.6564 117.989 95.2661 117.933 95.8204C117.989 96.3193 118.795 96.9013 120.351 97.5665C126.967 100.892 130.275 106.02 130.275 112.948V135.148C130.275 142.077 128.635 147.204 125.355 150.53C122.075 153.745 115.598 155.38 105.924 155.435H59.725ZM86.4106 84.2633H100.504C102.561 84.2633 103.589 83.2102 103.589 81.1038V62.23C103.589 60.1237 102.561 59.0705 100.504 59.0705H86.4106V84.2633ZM86.4106 132.487H100.504C102.561 132.487 103.589 131.434 103.589 129.328V110.454C103.589 108.348 102.561 107.294 100.504 107.294H86.4106V132.487Z" fill="white"/></svg>