 <svg viewBox="0 0 646 126" fill="none" xmlns="http://www.w3.org/2000/svg"><path fill="black" d="M642.139 96.8244L636.59 107.715L645.233 116.358L633.161 114.446L627.612 125.337L625.7 113.264L613.627 111.352L624.518 105.803L622.606 93.7306L631.249 102.373L642.139 96.8244Z"></path><path fill="black" d="M142.754 15.4711L136.567 55.7836H148.879L142.754 15.4711ZM126.817 0.22113H158.629L174.879 89.9086H154.879L151.942 72.9711H133.504L130.567 89.9086H110.567L126.817 0.22113Z"></path><path fill="black" d="M204.567 50.0336V89.9086H184.567V0.22113H204.567V38.0961L218.442 0.22113H238.692L222.442 44.1586L239.942 89.9086H219.692L204.567 50.0336Z"></path><path fill="black" d="M292.754 0.22113V17.4711H267.879V36.4086H289.254V53.6586H267.879V72.6586H292.754V89.9086H247.817V72.6586H247.879V0.22113H292.754Z"></path><path fill="black" d="M317.067 72.6586H324.629C326.129 72.6586 326.879 71.867 326.879 70.2836V0.22113H346.879V74.6586C346.879 79.867 345.65 83.7211 343.192 86.2211C340.734 88.6378 335.879 89.867 328.629 89.9086H317.067V72.6586Z"></path><path fill="black" d="M361.317 15.4711C361.317 10.2628 362.546 6.40863 365.004 3.90863C367.463 1.49196 372.317 0.262797 379.567 0.22113H395.942C403.192 0.262797 408.046 1.49196 410.504 3.90863C412.963 6.40863 414.192 10.2628 414.192 15.4711V74.6586C414.192 79.867 412.963 83.7211 410.504 86.2211C408.046 88.6378 403.192 89.867 395.942 89.9086H379.567C372.317 89.867 367.463 88.6378 365.004 86.2211C362.546 83.7211 361.317 79.867 361.317 74.6586V15.4711ZM381.317 70.2836C381.317 71.867 382.067 72.6586 383.567 72.6586H391.879C393.421 72.6586 394.192 71.867 394.192 70.2836V19.8461C394.192 18.2628 393.421 17.4711 391.879 17.4711H383.567C382.067 17.4711 381.317 18.2628 381.317 19.8461V70.2836Z"></path><path fill="black" d="M447.317 39.9086V89.9086H428.567V0.22113H448.567L466.442 52.0961V0.22113H485.192V89.9086H465.192L447.317 39.9086Z"></path><path fill="black" d="M544.504 0.22113V17.4711H519.629V36.4086H541.004V53.6586H519.629V72.6586H544.504V89.9086H499.567V72.6586H499.629V0.22113H544.504Z"></path><path fill="black" d="M557.192 42.4711C554.733 39.9711 553.504 35.9086 553.504 30.2836V15.4711C553.504 10.2628 554.733 6.40863 557.192 3.90863C559.65 1.49196 564.504 0.262797 571.754 0.22113H586.879C594.129 0.262797 598.983 1.49196 601.442 3.90863C603.9 6.40863 605.129 10.2628 605.129 15.4711V29.9711H586.379V19.8461C586.379 18.2628 585.608 17.4711 584.067 17.4711H575.129C573.629 17.4711 572.879 18.2628 572.879 19.8461V28.4086C572.879 30.4086 577.129 33.617 585.629 38.0336C594.129 42.4086 599.608 45.8045 602.067 48.2211C604.525 50.7211 605.754 54.7836 605.754 60.4086V74.6586C605.754 79.867 604.525 83.7211 602.067 86.2211C599.608 88.6378 594.754 89.867 587.504 89.9086H571.129C563.879 89.867 559.025 88.6378 556.567 86.2211C554.108 83.7211 552.879 79.867 552.879 74.6586V60.1586H572.254V70.2836C572.254 71.867 573.025 72.6586 574.567 72.6586H583.504C585.004 72.6586 585.754 71.867 585.754 70.2836V61.6586C585.754 60.0753 581.608 57.0961 573.317 52.7211C565.025 48.3045 559.65 44.8878 557.192 42.4711Z"></path><path fill="black" fill-rule="evenodd" clip-rule="evenodd" d="M80.9418 0.22113H100.942V99.5336L605.754 99.5336V119.534L80.9418 119.534V99.5336V0.22113Z"></path><path fill="black" d="M0.766846 119.534V0.22113H46.1323C55.8058 0.27656 62.2827 1.91174 65.5628 5.12666C68.8429 8.45245 70.4829 13.5797 70.4829 20.5084V42.708C70.4829 49.6367 67.453 54.764 61.3931 58.0898C59.8365 58.7549 59.0304 59.3647 58.9748 59.919C59.0304 60.4178 59.8365 60.9998 61.3931 61.665C68.0089 64.9908 71.3168 70.118 71.3168 77.0467V99.2463C71.3168 106.175 69.6768 111.302 66.3967 114.628C63.1166 117.843 56.6398 119.478 46.9663 119.534H0.766846ZM27.4524 48.3619H41.5457C43.6028 48.3619 44.6313 47.3087 44.6313 45.2024V26.3285C44.6313 24.2222 43.6028 23.169 41.5457 23.169H27.4524V48.3619ZM27.4524 96.5857H41.5457C43.6028 96.5857 44.6313 95.5326 44.6313 93.4262V74.5524C44.6313 72.4461 43.6028 71.3929 41.5457 71.3929H27.4524V96.5857Z"></path></svg>